<?xml version="1.0" encoding="UTF-8" standalone="no"?>
<!-- Created with Inkscape (http://www.inkscape.org/) -->

<svg
   xmlns:dc="http://purl.org/dc/elements/1.1/"
   xmlns:cc="http://creativecommons.org/ns#"
   xmlns:rdf="http://www.w3.org/1999/02/22-rdf-syntax-ns#"
   xmlns:svg="http://www.w3.org/2000/svg"
   xmlns="http://www.w3.org/2000/svg"
   xmlns:xlink="http://www.w3.org/1999/xlink"
   xmlns:sodipodi="http://sodipodi.sourceforge.net/DTD/sodipodi-0.dtd"
   xmlns:inkscape="http://www.inkscape.org/namespaces/inkscape"
   width="100"
   height="100"
   viewBox="0 0 100 100"
   id="svg2"
   version="1.1"
   inkscape:version="0.91 r13725"
   sodipodi:docname="logoSI.svg">
  <defs
     id="defs4">
    <linearGradient
       inkscape:collect="always"
       id="linearGradient4251">
      <stop
         style="stop-color:#808080;stop-opacity:1"
         offset="0"
         id="stop4253" />
      <stop
         style="stop-color:#000000;stop-opacity:1"
         offset="1"
         id="stop4255" />
    </linearGradient>
    <path
       style="fill:none;fill-rule:evenodd;stroke:none;stroke-width:1.03157794px;stroke-linecap:butt;stroke-linejoin:miter;stroke-opacity:1"
       d="m 23.730377,1002.9801 c -0.523123,-32.49296 50.334513,-38.59021 50.396839,0.4411"
       id="path4148-9"
       inkscape:connector-curvature="0"
       sodipodi:nodetypes="cc" />
    <path
       style="fill:none;fill-rule:evenodd;stroke:none;stroke-width:1.03157794px;stroke-linecap:butt;stroke-linejoin:miter;stroke-opacity:1"
       d="m 23.730377,1002.9801 c -0.523123,-32.49296 50.334513,-38.59021 50.396839,0.4411"
       id="path4148-1"
       inkscape:connector-curvature="0"
       sodipodi:nodetypes="cc" />
    <radialGradient
       inkscape:collect="always"
       xlink:href="#linearGradient4251"
       id="radialGradient4257"
       cx="34.452293"
       cy="995.19501"
       fx="34.452293"
       fy="995.19501"
       r="15"
       gradientTransform="matrix(-0.01258416,1.2382606,-1.2617814,-0.01282314,1291.8665,963.46279)"
       gradientUnits="userSpaceOnUse" />
    <filter
       inkscape:label="Chrome"
       inkscape:menu-tooltip="Bright chrome effect"
       inkscape:menu="Non realistic 3D shaders"
       height="1.5"
       y="-0.25"
       width="1.5"
       x="-0.25"
       style="color-interpolation-filters:sRGB"
       id="filter4379">
      <feGaussianBlur
         stdDeviation="5"
         result="result8"
         in="SourceGraphic"
         id="feGaussianBlur4381" />
      <feComposite
         in2="result8"
         operator="xor"
         id="feComposite4383" />
      <feComposite
         k2="1"
         operator="arithmetic"
         result="result17"
         in2="result8"
         id="feComposite4385" />
      <feOffset
         result="result18"
         in="result17"
         id="feOffset4387" />
      <feDisplacementMap
         in2="result17"
         in="result18"
         xChannelSelector="A"
         yChannelSelector="A"
         scale="100"
         result="result4"
         id="feDisplacementMap4389" />
      <feComposite
         in2="result4"
         result="fbSourceGraphic"
         operator="arithmetic"
         in="result4"
         k1="1"
         k3="1"
         id="feComposite4391" />
      <feComposite
         in2="fbSourceGraphic"
         result="result9"
         operator="over"
         id="feComposite4393" />
      <feComposite
         in2="SourceGraphic"
         operator="in"
         result="result15"
         id="feComposite4395" />
      <feComposite
         result="result16"
         in2="SourceGraphic"
         operator="in"
         in="result15"
         id="feComposite4397" />
    </filter>
    <filter
       inkscape:label="Chrome"
       inkscape:menu-tooltip="Bright chrome effect"
       inkscape:menu="Non realistic 3D shaders"
       height="1.5"
       y="-0.25"
       width="1.5"
       x="-0.25"
       style="color-interpolation-filters:sRGB"
       id="filter4379-2">
      <feGaussianBlur
         stdDeviation="5"
         result="result8"
         in="SourceGraphic"
         id="feGaussianBlur4381-0" />
      <feComposite
         in2="result8"
         operator="xor"
         id="feComposite4383-1" />
      <feComposite
         k4="0"
         k3="0"
         k1="0"
         k2="1"
         operator="arithmetic"
         result="result17"
         in2="result8"
         id="feComposite4385-0" />
      <feOffset
         result="result18"
         in="result17"
         id="feOffset4387-2" />
      <feDisplacementMap
         in2="result17"
         in="result18"
         xChannelSelector="A"
         yChannelSelector="A"
         scale="100"
         result="result4"
         id="feDisplacementMap4389-0" />
      <feComposite
         k4="0"
         k2="0"
         in2="result4"
         result="fbSourceGraphic"
         operator="arithmetic"
         in="result4"
         k1="1"
         k3="1"
         id="feComposite4391-7" />
      <feComposite
         in2="fbSourceGraphic"
         result="result9"
         operator="over"
         id="feComposite4393-1" />
      <feComposite
         in2="SourceGraphic"
         operator="in"
         result="result15"
         id="feComposite4395-6" />
      <feComposite
         result="result16"
         in2="SourceGraphic"
         operator="in"
         in="result15"
         id="feComposite4397-0" />
    </filter>
    <filter
       inkscape:label="Metallized Paint"
       inkscape:menu="Materials"
       inkscape:menu-tooltip="Metallized effect with a soft lighting, slightly translucent at the edges"
       style="color-interpolation-filters:sRGB;"
       id="filter4948">
      <feGaussianBlur
         stdDeviation="1"
         result="result1"
         id="feGaussianBlur4950" />
      <feComposite
         in="result1"
         in2="result1"
         result="result4"
         operator="in"
         id="feComposite4952" />
      <feBlend
         in="result1"
         mode="screen"
         result="result5"
         in2="result4"
         id="feBlend4954" />
      <feGaussianBlur
         stdDeviation="8"
         result="result6"
         in="result5"
         id="feGaussianBlur4956" />
      <feComposite
         operator="atop"
         in="result6"
         in2="result5"
         result="result8"
         id="feComposite4958" />
      <feComposite
         operator="in"
         result="fbSourceGraphic"
         in="result6"
         in2="result8"
         id="feComposite4960" />
      <feGaussianBlur
         result="result0"
         in="fbSourceGraphic"
         stdDeviation="2.5"
         id="feGaussianBlur4962" />
      <feSpecularLighting
         specularExponent="45"
         specularConstant="1.5"
         surfaceScale="1"
         lighting-color="rgb(255,255,255)"
         result="result1"
         in="result0"
         id="feSpecularLighting4964">
        <fePointLight
           z="21000"
           y="-9000"
           x="-6000"
           id="fePointLight4966" />
      </feSpecularLighting>
      <feComposite
         operator="in"
         result="result2"
         in="result1"
         in2="fbSourceGraphic"
         id="feComposite4968" />
      <feComposite
         k3="1"
         k2="1"
         operator="arithmetic"
         result="result4"
         in="fbSourceGraphic"
         in2="result2"
         id="feComposite4970" />
      <feComposite
         operator="in"
         in="result9"
         in2="result4"
         result="result91"
         id="feComposite4972" />
      <feBlend
         mode="multiply"
         in2="result91"
         id="feBlend4974" />
    </filter>
  </defs>
  <sodipodi:namedview
     id="base"
     pagecolor="#ffffff"
     bordercolor="#666666"
     borderopacity="1.0"
     inkscape:pageopacity="0.0"
     inkscape:pageshadow="2"
     inkscape:zoom="2.8"
     inkscape:cx="-20.679625"
     inkscape:cy="35.126778"
     inkscape:document-units="px"
     inkscape:current-layer="layer1"
     showgrid="false"
     units="px"
     inkscape:window-width="1366"
     inkscape:window-height="705"
     inkscape:window-x="-8"
     inkscape:window-y="-8"
     inkscape:window-maximized="1" />
  <metadata
     id="metadata7">
    <rdf:RDF>
      <cc:Work
         rdf:about="">
        <dc:format>image/svg+xml</dc:format>
        <dc:type
           rdf:resource="http://purl.org/dc/dcmitype/StillImage" />
        <dc:title />
      </cc:Work>
    </rdf:RDF>
  </metadata>
  <g
     inkscape:label="Layer 1"
     inkscape:groupmode="layer"
     id="layer1"
     transform="translate(0,-952.36216)">
    <rect
       style="fill:#002010;fill-opacity:1;stroke:none;stroke-width:1;stroke-linejoin:miter;stroke-miterlimit:4;stroke-dasharray:none;stroke-dashoffset:0;stroke-opacity:1"
       id="rect4142"
       width="50"
       height="100"
       x="50"
       y="952.36218" />
    <rect
       style="fill:#100020;fill-opacity:1;stroke:none;stroke-width:1;stroke-linejoin:miter;stroke-miterlimit:4;stroke-dasharray:none;stroke-dashoffset:0;stroke-opacity:1"
       id="rect4144"
       width="50"
       height="100"
       x="0"
       y="952.36218" />
    <circle
       style="fill:#ffff00;fill-opacity:1;stroke:none;stroke-width:1;stroke-linejoin:miter;stroke-miterlimit:4;stroke-dasharray:none;stroke-dashoffset:0;stroke-opacity:1"
       id="path4146-3"
       cx="50"
       cy="1002.3622"
       r="40" />
    <path
       style="fill:#808000;fill-opacity:1;stroke:none;stroke-width:1;stroke-linejoin:miter;stroke-miterlimit:4;stroke-dasharray:none;stroke-dashoffset:0;stroke-opacity:1;filter:url(#filter4948)"
       d="m 90,1002.3622 a 40,40 0 0 1 -40,40 40,40 0 0 1 -40,-40 40,40 0 0 1 40,-40.00002 40,40 0 0 1 40,40.00002 z"
       id="path4146" />
    <path
       style="fill:none;fill-rule:evenodd;stroke:none;stroke-width:1.03157794px;stroke-linecap:butt;stroke-linejoin:miter;stroke-opacity:1"
       d="m 23.730377,1002.9801 c -0.523123,-32.49296 50.334513,-38.59021 50.396839,0.4411"
       id="path4148"
       inkscape:connector-curvature="0"
       sodipodi:nodetypes="cc" />
    <g
       transform="matrix(1.056906,0,0,1.0187843,-0.41749864,-18.204085)"
       style="font-style:normal;font-weight:normal;font-size:12.5px;line-height:125%;font-family:sans-serif;letter-spacing:0px;word-spacing:0px;fill:#000000;fill-opacity:1;stroke:none;stroke-width:1px;stroke-linecap:butt;stroke-linejoin:miter;stroke-opacity:1"
       id="text4158">
      <path
         d="m 17.99358,995.12023 q 0.600311,0.0689 1.091384,0.34022 0.485705,0.2646 0.818531,0.68368 0.413349,0.52047 0.576798,1.18429 0.157386,0.66313 0.04609,1.63333 l -0.137727,1.20065 3.365381,0.386 -0.137726,1.2006 -9.028923,-1.0357 0.281018,-2.44975 q 0.09321,-0.81254 0.297365,-1.36047 0.198092,-0.54862 0.539235,-0.95183 0.404759,-0.47577 0.952174,-0.69557 0.548112,-0.22587 1.336399,-0.13545 z m -0.112972,1.25261 q -0.466909,-0.0536 -0.831324,0.0705 -0.364414,0.12407 -0.620967,0.43253 -0.221364,0.2695 -0.34332,0.63641 -0.127323,0.36015 -0.192709,0.93014 l -0.136335,1.1885 3.607931,0.41386 0.116163,-1.01263 q 0.08347,-0.72765 0.0083,-1.19704 -0.08123,-0.47009 -0.333536,-0.78777 -0.258368,-0.31839 -0.56653,-0.47047 -0.307467,-0.15814 -0.707674,-0.20405 z"
         style="font-size:12.5px"
         id="path4195" />
      <path
         d="m 21.129733,988.46689 -0.02143,0.0571 q -0.147142,0.2186 -0.255708,0.43864 -0.112139,0.21217 -0.227842,0.52078 -0.18641,0.49721 -0.137078,1.0437 0.04362,0.54434 0.231538,1.10367 l 4.532046,1.69912 -0.402818,1.07443 -6.383726,-2.39334 0.402818,-1.07443 0.942985,0.35354 q -0.274379,-0.83293 -0.303711,-1.39799 -0.0329,-0.57291 0.157791,-1.08155 0.10499,-0.28004 0.169274,-0.39934 0.05857,-0.12145 0.19285,-0.35791 l 1.103007,0.41353 z"
         style="font-size:12.5px"
         id="path4197" />
      <path
         d="m 27.47334,982.72939 q 1.357259,0.96657 1.647099,2.22202 0.28984,1.25544 -0.542195,2.42377 -0.839115,1.17828 -2.120315,1.3149 -1.27766,0.13165 -2.634919,-0.83493 -1.357259,-0.96657 -1.650639,-2.21704 -0.294812,-1.25898 0.544304,-2.43726 0.832034,-1.16834 2.118206,-1.30142 1.2812,-0.13662 2.638459,0.82996 z m -0.686871,0.9645 q -1.078847,-0.76831 -1.901818,-0.71748 -0.827943,0.0473 -1.362569,0.79801 -0.541708,0.76066 -0.315662,1.55855 0.224614,0.78938 1.303461,1.55769 1.044046,0.74352 1.886904,0.70685 0.837886,-0.0402 1.376053,-0.7959 0.531086,-0.74575 0.300068,-1.54718 -0.232448,-0.80994 -1.286437,-1.56054 z"
         style="font-size:12.5px"
         id="path4199" />
      <path
         d="m 36.173678,979.95201 -1.145013,0.88397 -3.131614,-0.89026 0.05892,3.26244 -1.05805,0.81683 0.02892,-4.31723 -4.175819,-1.09423 1.145012,-0.88397 3.095843,0.8639 -0.04731,-3.21742 1.062881,-0.82057 -0.06952,4.2946 4.235747,1.10194 z"
         style="font-size:12.5px"
         id="path4201" />
      <path
         d="m 35.213247,971.70907 -1.162255,0.56873 -0.523127,-1.06905 1.162254,-0.56874 0.523128,1.06906 z m 3.432461,7.18116 -1.030679,0.50434 -2.996583,-6.12376 1.030679,-0.50435 2.996583,6.12377 z"
         style="font-size:12.5px"
         id="path4203" />
      <path
         d="m 46.749431,973.50827 q 0.160366,0.65823 0.03411,1.22297 -0.12626,0.56473 -0.467834,0.99346 -0.402773,0.51274 -0.961257,0.8247 -0.552554,0.31052 -1.471713,0.53445 l -3.131073,0.76282 -2.151211,-8.82986 2.615158,-0.63713 q 0.9666,-0.23549 1.464272,-0.28135 0.497672,-0.0459 0.991396,0.0726 0.548389,0.13652 0.866043,0.48631 0.31621,0.34386 0.452015,0.90128 0.153142,0.62859 -0.05873,1.15136 -0.213313,0.51684 -0.682006,0.91372 l 0.01156,0.0474 q 0.940226,-0.0343 1.603505,0.44485 0.661833,0.47325 0.885767,1.39241 z m -2.944128,-3.49798 q -0.07802,-0.32022 -0.238212,-0.51363 -0.160196,-0.19341 -0.430628,-0.27201 -0.31772,-0.0922 -0.723703,-0.031 -0.407427,0.0553 -0.994504,0.19832 l -1.399494,0.34095 0.621236,2.54993 1.518096,-0.36985 q 0.551496,-0.13436 0.864646,-0.26719 0.311707,-0.13876 0.547077,-0.38457 0.235371,-0.2458 0.28014,-0.55197 0.04925,-0.31353 -0.04465,-0.69899 z m 1.734093,3.84303 q -0.130026,-0.5337 -0.366709,-0.80899 -0.236682,-0.27528 -0.711172,-0.39212 -0.320761,-0.0789 -0.740049,-0.0207 -0.414802,0.0508 -0.995948,0.19239 l -1.844249,0.44931 0.800383,3.28525 1.553676,-0.37852 q 0.770908,-0.18781 1.244322,-0.38482 0.471969,-0.20293 0.734252,-0.49298 0.275739,-0.31218 0.357684,-0.64625 0.08194,-0.33406 -0.03219,-0.80254 z"
         style="font-size:12.5px"
         id="path4205" />
      <path
         d="m 54.372082,976.53663 -1.139397,-0.0669 0.04255,-0.72507 q -0.158404,0.0946 -0.43149,0.26815 -0.266634,0.16777 -0.516792,0.26314 -0.294597,0.12334 -0.671636,0.19292 -0.377396,0.0757 -0.877024,0.0464 -0.920048,-0.054 -1.524059,-0.70084 -0.60401,-0.64685 -0.548586,-1.59127 0.04541,-0.77381 0.402328,-1.22976 0.363365,-0.46168 0.994852,-0.69976 0.637581,-0.23771 1.514606,-0.28406 0.877024,-0.0464 1.879142,-0.0365 l 0.01037,-0.1767 q 0.02289,-0.38995 -0.102236,-0.65408 -0.119029,-0.26378 -0.366354,-0.42503 -0.235497,-0.15444 -0.573846,-0.22321 -0.338349,-0.0688 -0.710024,-0.0906 -0.450885,-0.0265 -1.012502,0.0629 -0.56126,0.0832 -1.165515,0.27398 l -0.06093,-0.004 0.0683,-1.16377 q 0.340481,-0.0717 0.980593,-0.14422 0.640111,-0.0725 1.255508,-0.0364 0.718977,0.0422 1.24192,0.19517 0.529393,0.14723 0.90254,0.45649 0.367413,0.30281 0.54238,0.7594 0.174966,0.45659 0.136348,1.11464 l -0.271045,4.61852 z m -1.041063,-1.74246 0.111207,-1.89493 q -0.525788,-2.9e-4 -1.242249,0.0188 -0.710367,0.0195 -1.131487,0.1109 -0.50176,0.11118 -0.823933,0.39186 -0.321816,0.27458 -0.35221,0.79249 -0.03433,0.58493 0.301547,0.90423 0.336232,0.31321 1.061303,0.35576 0.60321,0.0354 1.116427,-0.16682 0.513574,-0.2083 0.959395,-0.5123 z"
         style="font-size:12.5px"
         id="path4207" />
      <path
         d="m 61.896588,979.04612 -1.067973,-0.41965 1.419648,-3.61293 q 0.171875,-0.43741 0.270303,-0.83811 0.10066,-0.40638 0.04914,-0.67581 -0.04827,-0.2944 -0.270617,-0.51292 -0.220118,-0.22421 -0.646171,-0.39162 -0.437414,-0.17187 -0.999415,-0.14351 -0.562001,0.0284 -1.131112,0.19165 l -1.861613,4.73771 -1.067973,-0.41964 2.493311,-6.34535 1.067973,0.41964 -0.276787,0.70441 q 0.662849,-0.21826 1.288354,-0.24135 0.625504,-0.0231 1.187894,0.1979 1.028208,0.40402 1.32457,1.23527 0.296363,0.83125 -0.161228,1.99579 l -1.618308,4.11852 z"
         style="font-size:12.5px"
         id="path4209" />
      <path
         d="m 66.267916,985.78655 -0.855837,-0.76434 2.187302,-2.44915 q -0.700974,-0.0123 -1.242901,-0.19349 -0.537863,-0.18576 -0.993095,-0.59232 -0.905913,-0.80906 -0.8256,-1.98937 0.08893,-1.1808 1.186648,-2.40993 0.585449,-0.65554 1.219312,-0.9896 0.642481,-0.33455 1.256961,-0.39952 0.597243,-0.064 1.165025,0.11576 0.567781,0.17975 1.018461,0.58225 0.409709,0.3659 0.642508,0.73748 0.23735,0.37564 0.406558,0.8459 l 0.249778,-0.16972 0.801209,0.71555 -6.216329,6.9605 z m 1.973832,-3.93275 2.569471,-2.87707 q -0.212785,-0.47645 -0.429006,-0.78412 -0.216221,-0.30767 -0.534883,-0.59227 -0.742029,-0.66269 -1.58026,-0.50296 -0.834166,0.15518 -1.622896,1.03833 -0.796861,0.89225 -0.918258,1.65126 -0.11278,0.75852 0.556412,1.35617 0.373291,0.33338 0.888878,0.50743 0.519653,0.1695 1.070542,0.20323 z"
         style="font-size:12.5px"
         id="path4211" />
      <path
         d="m 72.038728,990.70455 -0.546441,-1.009 0.665507,-0.36042 q -0.678651,-0.29187 -1.146205,-0.64253 -0.467554,-0.35066 -0.772747,-0.9142 -0.511562,-0.94459 -0.222141,-1.78156 0.294787,-0.83988 1.411121,-1.44445 l 3.891067,-2.10729 0.546441,1.009 -3.413405,1.8486 q -0.456194,0.24706 -0.760327,0.4673 -0.298767,0.21733 -0.453976,0.48185 -0.157669,0.2728 -0.140025,0.56172 0.01764,0.28891 0.255986,0.729 0.212181,0.39179 0.666095,0.7429 0.45682,0.35648 0.991467,0.58751 l 4.476069,-2.4241 0.546441,1.00899 -5.994927,3.24668 z"
         style="font-size:12.5px"
         id="path4213" />
      <path
         d="m 77.189681,997.73956 -1.088248,-4.9039 q -0.613732,0.1362 -1.03155,0.42273 -0.411859,0.28521 -0.632425,0.67177 -0.217251,0.37331 -0.266374,0.8281 -0.0478,0.46075 0.06592,0.97319 0.150742,0.67928 0.570941,1.30501 0.42748,0.63037 0.754449,0.86415 l 0.01322,0.0596 -1.221505,0.27107 q -0.363961,-0.51317 -0.655749,-1.06737 -0.291788,-0.55419 -0.435918,-1.20368 -0.367598,-1.65648 0.319908,-2.78436 0.693465,-1.1292 2.343986,-1.49547 1.632645,-0.36231 2.788995,0.31262 1.157673,0.6809 1.480313,2.13479 0.298838,1.34663 -0.326372,2.24812 -0.623888,0.90745 -2.071818,1.22876 l -0.607773,0.13488 z m 0.616053,-1.28083 q 0.880545,-0.20166 1.265338,-0.7497 0.386116,-0.54208 0.187772,-1.43586 -0.199667,-0.89974 -0.848985,-1.31833 -0.647996,-0.41263 -1.450393,-0.30959 l 0.846268,3.81348 z"
         style="font-size:12.5px"
         id="path4215" />
    </g>
    <path
       style="fill:none;fill-rule:evenodd;stroke:none;stroke-width:1.03157794px;stroke-linecap:butt;stroke-linejoin:miter;stroke-opacity:1"
       d="m -135.31603,527.82895 c -0.52312,-32.49296 50.334514,-38.59021 50.39684,0.4411"
       id="path4204"
       inkscape:connector-curvature="0"
       sodipodi:nodetypes="cc" />
    <text
       y="-1003.8362"
       xml:space="preserve"
       style="font-style:normal;font-weight:normal;font-size:12.97087669px;line-height:125%;font-family:sans-serif;letter-spacing:0px;word-spacing:0px;fill:#000000;fill-opacity:1;stroke:none;stroke-width:1px;stroke-linecap:butt;stroke-linejoin:miter;stroke-opacity:1"
       id="text4158-7"
       sodipodi:linespacing="125%"
       x="-14.708743"
       transform="matrix(1.0185376,0,0,0.9817998,-144.04641,492.21097)"><textPath
         xlink:href="#path4148-1"
         id="textPath4164-8"><tspan
   id="tspan4160-8"
   style="font-size:12.97087669px"><tspan
     id="tspan4162-3"
     y="23.472954"
     x="-11.373088"
     style="font-size:12.97087669px">ProxiBanque</tspan></tspan></textPath></text>
    <g
       transform="matrix(0.98748368,0,0,1.0000292,161.69041,972.48469)"
       style="font-style:normal;font-weight:normal;font-size:12.5px;line-height:125%;font-family:sans-serif;letter-spacing:0px;word-spacing:0px;fill:#000000;fill-opacity:1;stroke:none;stroke-width:1px;stroke-linecap:butt;stroke-linejoin:miter;stroke-opacity:1"
       id="flowRoot4226">
      <path
         d="m -112.17529,62.116785 q 0,0.531006 -0.25025,1.049805 -0.24414,0.518798 -0.68969,0.878906 -0.48829,0.390625 -1.14136,0.610351 -0.64697,0.219727 -1.5625,0.219727 -0.98267,0 -1.77002,-0.183106 -0.78125,-0.183105 -1.59302,-0.543212 l 0,-1.513672 0.0854,0 q 0.6897,0.57373 1.59302,0.885009 0.90332,0.31128 1.69678,0.31128 1.12304,0 1.7456,-0.421143 0.62866,-0.421142 0.62866,-1.123047 0,-0.604248 -0.29907,-0.891113 -0.29297,-0.286865 -0.89722,-0.445557 -0.45776,-0.12207 -0.99487,-0.201416 -0.53101,-0.07935 -1.12915,-0.201416 -1.2085,-0.256347 -1.79443,-0.872802 -0.57984,-0.622559 -0.57984,-1.617432 0,-1.141357 0.96436,-1.867676 0.96435,-0.732422 2.44751,-0.732422 0.95825,0 1.75781,0.183106 0.79956,0.183105 1.41602,0.45166 l 0,1.428223 -0.0854,0 q -0.5188,-0.439454 -1.36719,-0.726319 -0.84229,-0.292969 -1.7273,-0.292969 -0.97045,0 -1.5625,0.402833 -0.58593,0.402832 -0.58593,1.037597 0,0.567627 0.29297,0.891113 0.29296,0.323487 1.03149,0.494385 0.39062,0.08545 1.11084,0.20752 0.72021,0.12207 1.2207,0.250244 1.01319,0.268555 1.52588,0.811767 0.5127,0.543213 0.5127,1.519776 z"
         style=""
         id="path4218" />
      <path
         d="m -107.03003,64.710779 -3.58887,0 0,-0.927734 1.19019,0 0,-7.232666 -1.19019,0 0,-0.927735 3.58887,0 0,0.927735 -1.19018,0 0,7.232666 1.19018,0 0,0.927734 z"
         style=""
         id="path4220" />
    </g>
    <rect
       style="fill:#808080;fill-opacity:1;stroke:#000000;stroke-width:0.7;stroke-linejoin:miter;stroke-miterlimit:4;stroke-dasharray:none;stroke-dashoffset:0;stroke-opacity:1"
       id="rect4234-6"
       width="9.6272135"
       height="25.627213"
       x="1012.5485"
       y="-62.813606"
       transform="matrix(0,1,-1,0,0,0)" />
    <rect
       style="fill:#808080;fill-opacity:1;stroke:#000000;stroke-width:0.7;stroke-linejoin:miter;stroke-miterlimit:4;stroke-dasharray:none;stroke-dashoffset:0;stroke-opacity:1"
       id="rect4234"
       width="35.296242"
       height="24.911392"
       x="32.351879"
       y="990.90649" />
    <rect
       style="fill:url(#radialGradient4257);fill-opacity:1;stroke:#000000;stroke-width:0.56759107;stroke-linejoin:miter;stroke-miterlimit:4;stroke-dasharray:none;stroke-dashoffset:0;stroke-opacity:1"
       id="rect4234-0"
       width="29.432409"
       height="19.432409"
       x="35.283798"
       y="993.646" />
  </g>
</svg>
