<?xml version="1.0" encoding="UTF-8" standalone="no"?>
<!-- Created with Inkscape (http://www.inkscape.org/) -->

<svg
   xmlns:dc="http://purl.org/dc/elements/1.1/"
   xmlns:cc="http://creativecommons.org/ns#"
   xmlns:rdf="http://www.w3.org/1999/02/22-rdf-syntax-ns#"
   xmlns:svg="http://www.w3.org/2000/svg"
   xmlns="http://www.w3.org/2000/svg"
   xmlns:xlink="http://www.w3.org/1999/xlink"
   xmlns:sodipodi="http://sodipodi.sourceforge.net/DTD/sodipodi-0.dtd"
   xmlns:inkscape="http://www.inkscape.org/namespaces/inkscape"
   width="100"
   height="100"
   viewBox="0 0 100 100"
   id="svg2"
   version="1.1"
   inkscape:version="0.91 r13725"
   sodipodi:docname="logoBanque.svg">
  <defs
     id="defs4">
    <linearGradient
       inkscape:collect="always"
       id="linearGradient4995">
      <stop
         style="stop-color:#ff80ff;stop-opacity:1"
         offset="0"
         id="stop4997" />
      <stop
         id="stop5003"
         offset="0.5"
         style="stop-color:#ffffff;stop-opacity:1" />
      <stop
         style="stop-color:#80ffff;stop-opacity:1"
         offset="1"
         id="stop4999" />
    </linearGradient>
    <path
       style="fill:none;fill-rule:evenodd;stroke:none;stroke-width:1.03157794px;stroke-linecap:butt;stroke-linejoin:miter;stroke-opacity:1"
       d="m 23.730377,1002.9801 c -0.523123,-32.49296 50.334513,-38.59021 50.396839,0.4411"
       id="path4148-9"
       inkscape:connector-curvature="0"
       sodipodi:nodetypes="cc" />
    <path
       style="fill:none;fill-rule:evenodd;stroke:none;stroke-width:1.03157794px;stroke-linecap:butt;stroke-linejoin:miter;stroke-opacity:1"
       d="m 23.730377,1002.9801 c -0.523123,-32.49296 50.334513,-38.59021 50.396839,0.4411"
       id="path4148-1"
       inkscape:connector-curvature="0"
       sodipodi:nodetypes="cc" />
    <filter
       inkscape:label="Chrome"
       inkscape:menu-tooltip="Bright chrome effect"
       inkscape:menu="Non realistic 3D shaders"
       height="1.5"
       y="-0.25"
       width="1.5"
       x="-0.25"
       style="color-interpolation-filters:sRGB"
       id="filter4379">
      <feGaussianBlur
         stdDeviation="5"
         result="result8"
         in="SourceGraphic"
         id="feGaussianBlur4381" />
      <feComposite
         in2="result8"
         operator="xor"
         id="feComposite4383" />
      <feComposite
         k2="1"
         operator="arithmetic"
         result="result17"
         in2="result8"
         id="feComposite4385" />
      <feOffset
         result="result18"
         in="result17"
         id="feOffset4387" />
      <feDisplacementMap
         in2="result17"
         in="result18"
         xChannelSelector="A"
         yChannelSelector="A"
         scale="100"
         result="result4"
         id="feDisplacementMap4389" />
      <feComposite
         in2="result4"
         result="fbSourceGraphic"
         operator="arithmetic"
         in="result4"
         k1="1"
         k3="1"
         id="feComposite4391" />
      <feComposite
         in2="fbSourceGraphic"
         result="result9"
         operator="over"
         id="feComposite4393" />
      <feComposite
         in2="SourceGraphic"
         operator="in"
         result="result15"
         id="feComposite4395" />
      <feComposite
         result="result16"
         in2="SourceGraphic"
         operator="in"
         in="result15"
         id="feComposite4397" />
    </filter>
    <filter
       inkscape:label="Chrome"
       inkscape:menu-tooltip="Bright chrome effect"
       inkscape:menu="Non realistic 3D shaders"
       height="1.5"
       y="-0.25"
       width="1.5"
       x="-0.25"
       style="color-interpolation-filters:sRGB"
       id="filter4379-2">
      <feGaussianBlur
         stdDeviation="5"
         result="result8"
         in="SourceGraphic"
         id="feGaussianBlur4381-0" />
      <feComposite
         in2="result8"
         operator="xor"
         id="feComposite4383-1" />
      <feComposite
         k4="0"
         k3="0"
         k1="0"
         k2="1"
         operator="arithmetic"
         result="result17"
         in2="result8"
         id="feComposite4385-0" />
      <feOffset
         result="result18"
         in="result17"
         id="feOffset4387-2" />
      <feDisplacementMap
         in2="result17"
         in="result18"
         xChannelSelector="A"
         yChannelSelector="A"
         scale="100"
         result="result4"
         id="feDisplacementMap4389-0" />
      <feComposite
         k4="0"
         k2="0"
         in2="result4"
         result="fbSourceGraphic"
         operator="arithmetic"
         in="result4"
         k1="1"
         k3="1"
         id="feComposite4391-7" />
      <feComposite
         in2="fbSourceGraphic"
         result="result9"
         operator="over"
         id="feComposite4393-1" />
      <feComposite
         in2="SourceGraphic"
         operator="in"
         result="result15"
         id="feComposite4395-6" />
      <feComposite
         result="result16"
         in2="SourceGraphic"
         operator="in"
         in="result15"
         id="feComposite4397-0" />
    </filter>
    <filter
       inkscape:label="Metallized Paint"
       inkscape:menu="Materials"
       inkscape:menu-tooltip="Metallized effect with a soft lighting, slightly translucent at the edges"
       style="color-interpolation-filters:sRGB;"
       id="filter4948">
      <feGaussianBlur
         stdDeviation="1"
         result="result1"
         id="feGaussianBlur4950" />
      <feComposite
         in="result1"
         in2="result1"
         result="result4"
         operator="in"
         id="feComposite4952" />
      <feBlend
         in="result1"
         mode="screen"
         result="result5"
         in2="result4"
         id="feBlend4954" />
      <feGaussianBlur
         stdDeviation="8"
         result="result6"
         in="result5"
         id="feGaussianBlur4956" />
      <feComposite
         operator="atop"
         in="result6"
         in2="result5"
         result="result8"
         id="feComposite4958" />
      <feComposite
         operator="in"
         result="fbSourceGraphic"
         in="result6"
         in2="result8"
         id="feComposite4960" />
      <feGaussianBlur
         result="result0"
         in="fbSourceGraphic"
         stdDeviation="2.5"
         id="feGaussianBlur4962" />
      <feSpecularLighting
         specularExponent="45"
         specularConstant="1.5"
         surfaceScale="1"
         lighting-color="rgb(255,255,255)"
         result="result1"
         in="result0"
         id="feSpecularLighting4964">
        <fePointLight
           z="21000"
           y="-9000"
           x="-6000"
           id="fePointLight4966" />
      </feSpecularLighting>
      <feComposite
         operator="in"
         result="result2"
         in="result1"
         in2="fbSourceGraphic"
         id="feComposite4968" />
      <feComposite
         k3="1"
         k2="1"
         operator="arithmetic"
         result="result4"
         in="fbSourceGraphic"
         in2="result2"
         id="feComposite4970" />
      <feComposite
         operator="in"
         in="result9"
         in2="result4"
         result="result91"
         id="feComposite4972" />
      <feBlend
         mode="multiply"
         in2="result91"
         id="feBlend4974" />
    </filter>
    <linearGradient
       inkscape:collect="always"
       xlink:href="#linearGradient4995"
       id="linearGradient5001"
       x1="-50.261482"
       y1="957.68622"
       x2="41.103313"
       y2="1027.3954"
       gradientUnits="userSpaceOnUse"
       gradientTransform="matrix(1.0980392,0,0,1.4213199,55.686277,-408.35572)" />
    <filter
       inkscape:label="3D Marble"
       inkscape:menu="Materials"
       inkscape:menu-tooltip="3D warped marble texture"
       height="1.5"
       y="-0.25"
       width="1.5"
       x="-0.25"
       style="color-interpolation-filters:sRGB;"
       id="filter5045">
      <feGaussianBlur
         stdDeviation="4"
         result="result8"
         id="feGaussianBlur5047" />
      <feTurbulence
         seed="50"
         result="result7"
         type="turbulence"
         numOctaves="7"
         baseFrequency="0.01 0.01"
         id="feTurbulence5049" />
      <feColorMatrix
         result="result5"
         values="1 0 0 0 0 0 1 0 0 0 0 0 1 0 0 0 0 0 1.4 0 "
         id="feColorMatrix5051" />
      <feComposite
         result="result6"
         in="result5"
         operator="in"
         in2="result8"
         id="feComposite5053" />
      <feDisplacementMap
         in="result5"
         xChannelSelector="A"
         yChannelSelector="A"
         scale="100"
         result="result4"
         in2="result6"
         id="feDisplacementMap5055" />
      <feFlood
         flood-opacity="1"
         flood-color="rgb(224,224,224)"
         id="feFlood5057" />
      <feComposite
         result="result2"
         operator="atop"
         in2="result4"
         id="feComposite5059" />
      <feComposite
         in="result2"
         operator="atop"
         in2="SourceGraphic"
         result="result9"
         id="feComposite5061" />
      <feBlend
         result="fbSourceGraphic"
         mode="darken"
         in2="result9"
         id="feBlend5063" />
      <feGaussianBlur
         stdDeviation="5"
         in="fbSourceGraphic"
         result="result0"
         id="feGaussianBlur5065" />
      <feSpecularLighting
         in="result0"
         result="result1"
         lighting-color="rgb(255,255,255)"
         surfaceScale="8"
         specularConstant="0.8"
         specularExponent="30"
         id="feSpecularLighting5067">
        <feDistantLight
           elevation="55"
           azimuth="235"
           id="feDistantLight5069" />
      </feSpecularLighting>
      <feComposite
         in2="fbSourceGraphic"
         in="result1"
         result="result2"
         operator="in"
         id="feComposite5071" />
      <feComposite
         in="fbSourceGraphic"
         result="result4"
         operator="arithmetic"
         k2="1"
         k3="1"
         in2="result2"
         id="feComposite5073" />
    </filter>
  </defs>
  <sodipodi:namedview
     id="base"
     pagecolor="#ffffff"
     bordercolor="#666666"
     borderopacity="1.0"
     inkscape:pageopacity="0.0"
     inkscape:pageshadow="2"
     inkscape:zoom="2.8"
     inkscape:cx="-10.256617"
     inkscape:cy="23.403616"
     inkscape:document-units="px"
     inkscape:current-layer="layer1"
     showgrid="false"
     units="px"
     inkscape:window-width="1366"
     inkscape:window-height="705"
     inkscape:window-x="-8"
     inkscape:window-y="-8"
     inkscape:window-maximized="1" />
  <metadata
     id="metadata7">
    <rdf:RDF>
      <cc:Work
         rdf:about="">
        <dc:format>image/svg+xml</dc:format>
        <dc:type
           rdf:resource="http://purl.org/dc/dcmitype/StillImage" />
        <dc:title />
      </cc:Work>
    </rdf:RDF>
  </metadata>
  <g
     inkscape:label="Layer 1"
     inkscape:groupmode="layer"
     id="layer1"
     transform="translate(0,-952.36216)">
    <rect
       style="fill:url(#linearGradient5001);fill-opacity:1;stroke:none;stroke-width:0.69999999;stroke-linejoin:miter;stroke-miterlimit:4;stroke-dasharray:none;stroke-dashoffset:0;stroke-opacity:1"
       id="rect4993"
       width="100"
       height="100"
       x="0"
       y="952.36212" />
    <g
       transform="matrix(0.72188932,0,0,1.1796019,79.251403,1031.6087)"
       style="font-style:normal;font-variant:normal;font-weight:normal;font-stretch:semi-expanded;font-size:15px;line-height:125%;font-family:Ravie;-inkscape-font-specification:'Ravie Semi-Expanded';letter-spacing:0px;word-spacing:0px;fill:#000000;fill-opacity:1;stroke:none;stroke-width:1px;stroke-linecap:butt;stroke-linejoin:miter;stroke-opacity:1"
       id="flowRoot5005">
      <path
         d="m -90.347656,1.3725056 q 0,0.8203125 -0.358887,1.7285156 -1.208496,3.0249024 -3.962402,3.0249024 -1.12793,0 -2.094727,-0.5126953 -0.541992,-0.2929688 -1.311035,-0.9521485 0.483398,2.3071289 1.772461,4.8266602 -3.00293,0.600586 -6.137694,1.289062 -0.0732,-0.263671 -0.0732,-0.571289 0,-0.3808589 0.13916,-0.4321285 0.26367,-0.073242 0.77636,-0.2416992 0.54932,-0.2050781 0.54932,-0.6665039 0,-0.065918 -0.007,-0.1391602 -0.42481,-3.2226562 -0.42481,-5.1782226 0,-2.0581055 0.39551,-3.99169924 -0.47608,0.16845703 -0.88623,0.16845703 -0.52735,0 -0.88623,-0.22705078 l 0.13183,-1.84570311 q 2.05079,1.0327148 4.130863,1.0327148 0.65918,0 2.124024,-0.1464843 1.472168,-0.1464844 2.226562,-0.1464844 2.014161,0 3.017579,0.89355467 0.878906,0.77636719 0.878906,2.08740233 z m -1.677246,0.3588867 q 0,-0.5493164 -0.886231,-0.871582 -0.856933,-0.31494141 -2.263183,-0.31494141 -1.545411,0 -2.790528,0.58593751 -1.201172,0.5566406 -1.201172,1.1865234 0,0.3955078 1.062012,0.6958008 0.974121,0.2783203 2.028809,0.2783203 1.40625,0 2.695312,-0.46875 1.354981,-0.4907226 1.354981,-1.0913086 z"
         style=""
         id="path4201" />
      <path
         d="m -78.562988,4.33149 q 0,1.0253906 -1.860352,1.5087891 -1.07666,0.2856445 -1.948242,0.2856445 -1.589355,0 -1.589355,-0.8642578 0,-0.9814453 0.820312,-1.6625977 0.651855,-0.5419922 1.655273,-0.7836914 0.08789,-0.021973 0.08789,-0.1245117 0,-0.168457 -0.366211,-0.3588867 -0.41748,-0.2124024 -0.966797,-0.2124024 -0.996093,0 -1.750488,0.5566407 -0.930176,0.6884765 -0.930176,1.9482421 0,1.0400391 0.65918,3.1713868 0.05859,0.1831054 0.761719,0.3295898 0.776367,0.1538086 1.96289,0.234375 -0.102539,0.4614258 -0.249023,1.1132813 -0.285645,-0.014648 -0.842285,-0.014648 -3.369141,0 -6.657715,0.8422849 -0.219727,-0.3295896 -0.366211,-1.0400388 -0.01465,-0.080566 0.08057,-0.1171875 0.878907,-0.3662109 0.893555,-0.3662109 0.388184,-0.2050782 0.410156,-0.4907227 0.09521,-0.769043 0.19043,-1.5307617 0.168457,-1.4794922 0.168457,-2.2924805 0,-0.8789062 -0.197754,-1.0180664 -0.241699,-0.1831054 -0.703125,-0.1831054 -0.168457,0 -0.600586,0.073242 -0.117187,0.021973 -0.117187,-0.029297 0,-0.1098633 -0.09521,-0.7910157 -0.08789,-0.6884765 -0.08789,-0.7690429 0,-0.1025391 0.124512,-0.073242 0.622558,0.168457 1.259765,0.168457 1.552735,0 3.237305,-1.12792967 -0.09522,0.57861327 -0.241699,1.50146487 1.171875,-1.0986328 3.259277,-1.0986328 2.834473,0 3.735352,2.1313476 0.263672,0.6445313 0.263672,1.0839844 z"
         style=""
         id="path4203" />
      <path
         d="m -68.396973,4.3607869 q 0,0.6884765 -0.168457,1.6625976 -0.292968,1.7285156 -1.289062,2.8857422 -1.289063,1.4941403 -3.435059,1.4941403 -1.948242,0 -3.522949,-1.2451169 -1.662598,-1.3183593 -1.662598,-3.1640625 0,-1.4501953 1.245118,-2.7539062 1.413574,-1.4794922 3.676757,-1.7651367 0.725098,-0.087891 1.677246,-0.087891 1.904297,0 2.731934,0.7763671 0.74707,0.703125 0.74707,2.1972657 z m -1.259765,1.0620117 q 0,-0.5639649 -0.9375,-0.8862305 -0.84961,-0.2856445 -2.182617,-0.2856445 -1.464844,0 -2.849122,0.805664 -1.30371,0.7617188 -1.30371,1.4428711 0,0.46875 0.83496,0.7836914 0.834961,0.3149415 2.028809,0.3149415 1.508789,0 2.958984,-0.7104493 1.450196,-0.7104492 1.450196,-1.4648437 z"
         style=""
         id="path4205" />
      <path
         d="m -55.945801,9.48774 q -3.713379,0.4833984 -6.166992,1.003418 -0.241699,-0.410156 -0.688477,-1.2011719 0.52002,0 1.010743,-0.080566 0.60791,-0.1098633 0.60791,-0.2929688 0,-0.703125 -1.347656,-1.9335937 -0.959473,0.8422851 -2.189942,1.9628906 -0.08789,0.095215 -0.08789,0.1977539 0,0.2856445 0.490722,0.7324219 0.07324,0.065918 -0.0293,0.1684574 -0.212402,0.197754 -0.571289,0.571289 -0.637207,-0.227051 -2.021484,-0.6445316 -0.585938,-0.1757812 -1.633301,-0.4833984 0.761719,-0.5859375 2.556152,-1.8383789 1.662598,-1.171875 2.541504,-1.8676758 -2.307129,-2.5341797 -3.105468,-2.9223633 -0.153809,-0.073242 -0.300293,-0.014648 -0.263672,0.1098633 -0.842286,0.4321289 -0.08057,-0.5566406 -0.249023,-1.3476563 1.73584,-0.1611328 3.010254,-0.4394531 1.083984,-0.234375 2.731934,-0.89355467 0.153808,0.51269527 0.41748,1.33300777 l -0.32959,0 q -0.776367,0 -0.776367,0.1464844 0,0.1464844 0.549316,0.8862305 0.498047,0.6665039 0.886231,1.0986328 0.974121,-0.8349609 1.259765,-1.105957 0.402833,-0.3808594 0.644532,-0.7250977 0.109863,-0.1538086 0.109863,-0.3588867 0,-0.3808594 -0.314941,-0.5126953 -0.109864,-0.043945 -0.01465,-0.2124024 0,0 0.300293,-0.50537106 0.593262,0.19042969 1.743164,0.66650386 1.157227,0.4760743 1.750488,0.666504 -2.453613,1.5380859 -4.533691,3.2373046 0.615234,0.5786133 1.45752,1.5014649 0.703125,0.769043 1.413574,1.5380859 0.300293,0.3222656 0.476074,0.3222656 0.249023,0 0.930176,-0.2124023 0.0293,0.1171875 0.314941,1.1279297 z"
         style=""
         id="path4207" />
      <path
         d="m -48.467773,-0.72954517 q 0,0.49072266 -1.12793,0.83496094 -0.996094,0.30761719 -2.109375,0.30761719 -1.040039,0 -1.706543,-0.3881836 -0.769043,-0.45410156 -0.769043,-1.30371096 0,-1.0986328 2.53418,-1.0986328 1.40625,0 2.321777,0.5200195 0.856934,0.4833985 0.856934,1.12792973 z M -48.40918,9.656197 q -1.486816,-0.2709961 -3.164062,-0.2709961 -1.618653,0 -4.526367,0.534668 0.109863,-0.5419922 0.249023,-1.2597656 1.171875,-0.1391602 1.523438,-0.5566407 0.358886,-0.4248046 0.600586,-1.5673828 0.234375,-1.0839843 0.234375,-2.1166992 0,-1.0986328 -0.930176,-1.0986328 -0.292969,0 -0.556641,0.065918 -0.402832,-0.8862305 -0.402832,-1.2670899 3.00293,-0.021973 5.610352,-0.9887695 0.0293,0.021973 0.0293,0.1245117 0,0.1611328 -0.07324,0.5859375 -0.46875,2.5927735 -0.46875,4.3139649 0,1.1938476 0.285645,1.5600586 0.175781,0.2270507 0.498047,0.2270507 0.366211,0 0.834961,-0.1977539 0.131836,-0.05127 0.153808,0.1245117 0.08057,0.6372071 0.102539,1.7871094 z"
         style=""
         id="path4209" />
      <path
         d="m -36.888184,4.5512166 q 0,0.2783203 -0.05859,0.6152343 -0.314942,1.7797852 -1.215821,2.9663086 -1.040039,1.3696289 -2.504882,1.3696289 -1.801758,0 -2.988282,-0.703125 -0.0073,0.021973 -0.0073,0.065918 0,0.300293 0.373535,1.3403316 -1.662597,-0.7910152 -3.259277,-0.7910152 -0.996094,0 -1.435547,0.3735352 l 0.04395,-1.706543 q 0.234375,-0.1098633 0.556641,-0.1098633 0.534668,0 1.120605,0.2856445 -0.988769,-3.6254882 -0.988769,-9.04541012 0,-0.57128908 -0.644531,-0.68847658 -0.234375,-0.036621 -0.688477,-0.1318359 -0.183105,-0.058594 -0.183105,-0.600586 0,-0.1098632 0.01465,-0.2197265 0.01465,-0.1098633 0.01465,-0.1245117 0.402833,0.1098632 6.079102,0.5639648 -1.245117,2.75390626 -1.472168,5.7202149 0.285645,-0.3588868 0.571289,-0.7177735 0.439453,-0.5126953 0.981445,-0.8203125 0.717774,-0.4174805 1.684571,-0.5493164 0.454101,-0.058594 0.900879,-0.058594 1.73584,0 2.526855,1.0473632 0.578613,0.769043 0.578613,1.9189454 z m -1.662597,1.3183593 q 0,-0.4614258 -1.040039,-0.8496093 -1.010742,-0.3735352 -2.124024,-0.3735352 -1.105957,0 -1.992187,0.2856445 -0.878906,0.2783203 -0.878906,0.6445313 0,0.4174804 1.040039,0.8789062 1.040039,0.4541016 1.948242,0.4541016 1.062011,0 1.984863,-0.2636719 1.062012,-0.3076172 1.062012,-0.7763672 z"
         style=""
         id="path4211" />
      <path
         d="m -24.078125,9.5170369 q -0.344238,-0.2416993 -1.120605,-0.2416993 -0.9375,0 -2.1167,0.3076172 -1.179199,0.3076172 -1.845703,0.7177732 0.256348,-1.2304685 0.256348,-1.6406247 0,-0.1245117 -0.04395,-0.1171875 -0.0293,0.00732 -0.09521,0.058594 -1.230469,1.0107422 -2.937012,1.2304688 -0.812988,0.102539 -1.376953,0.102539 -1.669922,0 -2.39502,-0.7104492 -0.651855,-0.637207 -0.651855,-1.9555664 0,-0.6884766 0.131836,-1.5161133 0.270996,-1.640625 1.171875,-2.7099609 1.083984,-1.2670899 2.775879,-1.2670899 1.831054,0 3.566894,1.6845704 0,-0.366211 -0.205078,-1.0327149 -0.227051,-0.7104492 -0.512695,-1.1572265 3.603515,-0.54931646 4.980469,-1.05468755 0.131835,0.46142578 0.131835,0.93017575 0,0.3808594 -0.08789,0.46875 -1.07666,0.366211 -1.07666,0.6591797 l 0,0.014648 q 0,0.2416992 0.02197,0.7617187 0.02197,0.5200195 0.02197,0.7983399 0,2.3510742 -0.600586,3.8818359 0.483399,-0.300293 1.149902,-0.300293 0.351563,0 0.651856,0.080566 l 0.205078,2.006836 z m -4.255371,-4.0942383 q 0,-0.3076172 -0.615234,-0.5126953 -0.651856,-0.2197266 -1.699219,-0.2197266 -1.369629,0 -2.636719,0.5126953 -1.230469,0.5053711 -1.230469,1.0180664 0,0.4101563 0.871582,0.6591797 0.783692,0.2197266 1.860352,0.2197266 1.223144,0 2.365723,-0.5859375 1.083984,-0.5639649 1.083984,-1.0913086 z"
         style=""
         id="path4213" />
      <path
         d="m -12.359375,10.315377 q -0.109863,0.285644 -0.270996,0.717773 l -4.504395,-0.842285 q 0.754395,-1.2011719 0.754395,-3.7353516 0,-0.6738281 0,-0.6738281 -0.05127,-1.2011719 -0.629883,-1.2011719 -0.183105,0 -0.483398,0.1538086 -1.223145,0.6152344 -1.73584,2.6806641 0.01465,0.7104492 0.673828,2.6733399 -1.669922,-0.7470704 -3.347168,-0.7470704 -1.113281,0 -1.54541,0.3881836 l 0.01465,-1.7285156 q 0.234375,-0.1025391 0.585938,-0.1025391 0.520019,0 1.098633,0.2709961 -0.410157,-0.5786133 -0.739747,-2.8710937 -0.197753,-1.4208985 -0.270996,-2.5122071 -0.03662,-0.5859375 -0.703125,-0.6958007 -0.219726,-0.021973 -0.644531,-0.1025391 -0.197754,-0.058594 -0.197754,-0.6445313 0,-0.1831054 0.0293,-0.3002929 0.13916,0.073242 5.793457,0.4467773 -0.944824,1.4941406 -0.944824,3.9331055 0.893555,-2.7612305 3.251953,-4.2919922 0.651855,-0.41748047 1.142578,-0.41748047 0.856934,0 1.274414,1.15722657 0.344238,0.9375 0.344238,2.4243164 0,0.5712891 -0.05859,1.1425781 -0.212403,2.006836 -0.212403,3.0908203 0,1.0180664 0.197754,1.40625 0.410157,0.1611327 1.12793,0.3808597 z"
         style=""
         id="path4215" />
      <path
         d="m -0.68457031,12.681099 q 0,0.285645 -0.28564453,0.673828 -0.32226566,-0.06592 -3.03222656,-0.446777 -2.5708008,-0.358887 -2.878418,-0.388183 1.003418,-1.567383 1.4208985,-2.519532 0.5493164,-1.2377927 0.5493164,-2.2998044 -1.3403321,1.3696289 -3.3178711,1.3696289 -1.8896484,0 -2.9882814,-1.3110351 -0.805664,-0.9521485 -1.003418,-2.2778321 -0.117187,-0.7983398 -0.117187,-1.4208984 0,-1.2597656 0.615234,-1.8530273 0.688477,-0.6518555 2.2924805,-0.6518555 0.6445312,0 1.3989258,0.087891 1.6479492,0.1977539 2.7758789,1.0766602 0,-0.3588868 -0.3295899,-1.5234375 1.8969727,0.9741211 3.8232422,0.9741211 0.5932618,0 1.01806644,-0.1538086 l -0.18310547,1.7724609 q -0.16845707,0.058594 -0.40283207,0.058594 -0.5859375,0 -1.2158203,-0.3881836 0.6445313,1.5673828 0.6445313,4.855957 0,1.3989258 -0.1757813,3.120117 -0.036621,0.366211 0.3149414,0.629883 0.2929688,0.227051 1.003418,0.483398 0.0732422,0.01465 0.0732422,0.131836 z M -4.3759766,5.7670369 q 0,-0.4907227 -1.0986328,-1.0400391 -1.1425781,-0.5639648 -2.2705078,-0.5639648 -1.0473633,0 -1.7871094,0.2124023 -0.8276364,0.2416992 -0.8276364,0.6445313 0,0.5419921 1.2597653,1.0107421 1.1938477,0.4541016 2.3876954,0.4541016 0.871582,0 1.5380859,-0.168457 0.7983398,-0.1977539 0.7983398,-0.5493164 z"
         style=""
         id="path4217" />
      <path
         d="m 11.532227,1.4457478 q 0,0.6738281 -0.109864,0.7543945 Q 10.821777,2.0756306 10.375,2.0756306 q -0.5932617,0 -0.6445312,0.2709961 -0.1538086,0.7397461 -0.300293,2.1826172 -0.168457,1.5966797 -0.168457,2.6074219 l 0,0.3149414 Q 9.671875,7.2538533 10.177246,7.2538533 q 0.446777,0 0.827637,0.1318359 l 0.102539,1.2011719 -0.161133,0 q -0.915527,0 -2.4829101,0.6518555 -1.1865234,0.4907226 -2.277832,1.1352534 -0.1611328,0.09521 -0.1757813,0.08789 -0.043945,-0.01465 0.014649,-0.256348 Q 6.3100586,9.0482869 6.4125977,7.9276814 5.3945312,9.1068806 4.1787109,9.6781697 3.2338867,10.117623 2.3769531,10.117623 q -1.0546875,0 -1.7285156,-0.4980471 -0.74707031,-0.5566406 -0.74707031,-1.5600586 0,-1.6186523 1.11328121,-3.2446289 0.7763672,-1.1279297 1.8896485,-2.0141601 -0.1025391,0 -0.3222656,-0.00732 -0.2197266,-0.00732 -0.3222657,-0.00732 -1.28173826,0 -2.62939451,0.1025391 0.0878906,-0.168457 0.5859375,-1.1865234 1.80175781,0.1391601 3.17871091,0.1391601 0.6372071,0 2.7026367,-0.065918 -0.9375,1.1572266 -1.5966796,2.6000977 -0.6958008,1.5234375 -0.6958008,2.5341797 0,0.5859375 0.2709961,0.9448242 0.2490234,0.3295899 0.6152343,0.3295899 0.6884766,0 1.5234375,-1.9995118 Q 7.09375,4.0678181 7.2988281,1.4896931 7.3500977,0.85248608 7.3574219,0.54486889 8.0166016,0.70600171 11.532227,1.4457478 Z"
         style=""
         id="path4219" />
      <path
         d="m 21.81543,4.9467244 q 0,0.3735351 -0.0293,0.8789062 0,0.087891 -0.07324,0.065918 -1.245118,-0.2783203 -4.07959,-0.7397461 -2.519531,-0.402832 -2.636719,-0.402832 -0.168457,0 -0.168457,1.3769531 0,1.7358398 0.761719,2.5927734 0.578613,0.6518555 1.486816,0.6958008 0.512695,0.021973 0.944824,-0.1538086 0.168457,-0.065918 0.168457,-0.1318359 0,-0.043945 -0.08789,-0.073242 -0.959473,-0.1757813 -1.567383,-0.7104492 -0.60791,-0.5419922 -0.60791,-1.2890625 0,-0.46875 0.527344,-0.7543946 0.534668,-0.2929687 1.450195,-0.2929687 0.629883,0 1.333008,0.1318359 1.889648,0.366211 1.889648,1.5161133 0,0.3222656 -0.175781,0.6591797 -0.490723,0.9228516 -1.21582,1.3183594 -1.054688,0.5712886 -3.208008,0.5712886 -2.475586,0 -3.955078,-1.8310543 -1.26709,-1.5600586 -1.26709,-3.5229492 0,-3.6254883 5.925293,-3.6254883 3.435058,0 4.226074,1.7211914 0.358887,0.7836915 0.358887,1.9995118 z M 19.010254,3.2621541 q 0,-0.4101563 -0.534668,-0.666504 -0.534668,-0.2636718 -1.413574,-0.2636718 -1.025391,0 -1.779785,0.1904297 -0.886231,0.2197265 -0.886231,0.5932617 0,0.9448242 3.024902,0.9448242 1.589356,0 1.589356,-0.7983398 z"
         style=""
         id="path4221" />
    </g>
    <g
       id="g5093"
       transform="matrix(0.98058778,0,0,1,4.63922,1.4285714)">
      <path
         sodipodi:nodetypes="ccccc"
         inkscape:connector-curvature="0"
         id="rect5086"
         d="m 47.855977,976.60073 5.808377,-1.70464 0.315673,15.08916 -6.12405,-1.76777 z"
         style="fill:#804000;fill-opacity:1;stroke:#000000;stroke-width:0.1;stroke-linejoin:miter;stroke-miterlimit:4;stroke-dasharray:none;stroke-dashoffset:0;stroke-opacity:1" />
      <g
         id="flowRoot5075"
         style="font-style:normal;font-variant:normal;font-weight:bold;font-stretch:normal;font-size:40px;line-height:125%;font-family:sans-serif;-inkscape-font-specification:'sans-serif Bold';letter-spacing:0px;word-spacing:0px;fill:#000000;fill-opacity:1;stroke:none;stroke-width:1px;stroke-linecap:butt;stroke-linejoin:miter;stroke-opacity:1"
         transform="matrix(1.3754767,0,0,1.6754293,189.66046,911.9879)">
        <path
           sodipodi:nodetypes="scccscccccccscccsccccc"
           inkscape:connector-curvature="0"
           id="path5084"
           d="m -89.427734,41.459649 c 0,1.302083 -0.227865,2.578125 -0.683594,3.828125 -0.455729,1.236979 -1.106771,2.278646 -1.953125,3.125 -1.158854,1.145833 -2.454427,2.011719 -3.886719,2.597656 -1.419271,0.585938 -3.190103,0.878907 -5.312498,0.878907 l -4.66797,0 0,9.472656 c 0.0314,1.341866 2.33257,2.56246 5.97942,2.877727 -3.47547,0.01691 -6.86795,0.32711 -9.72942,-2.877727 -1.81995,2.673163 -5.64689,4.486669 -9.40262,6.330677 2.14261,-2.061271 5.54686,-3.615011 5.65262,-6.330677 l 0,-29.082031 12.34375,0 c 1.848958,0 3.404947,0.16276 4.667968,0.488281 1.276042,0.3125 2.402344,0.78776 3.378906,1.425781 1.171875,0.768229 2.063803,1.751302 2.675782,2.949219 0.625,1.197917 0.9375,2.636719 0.9375,4.316406 z m -10.257634,-3.749996 -6.246272,0 0,8.710938 6.37125,-0.07537 z" />
      </g>
      <circle
         r="1"
         cy="978.50494"
         cx="45.762383"
         id="path5089"
         style="fill:#000000;fill-opacity:1;stroke:none;stroke-width:0.1;stroke-linejoin:miter;stroke-miterlimit:4;stroke-dasharray:none;stroke-dashoffset:0;stroke-opacity:1" />
      <path
         sodipodi:nodetypes="ccczccsccccccccc"
         inkscape:connector-curvature="0"
         id="path5091"
         d="m 47.12993,983.64022 c -0.0053,0.34728 0.584554,0.46675 0.52086,-0.0316 l -0.157837,-2.91997 c -0.01052,-0.6366 -0.952465,-1.12934 -1.7362,-1.10485 -0.783734,0.0245 -1.467891,0.41001 -1.60993,1.16798 l -0.173616,2.80949 c 0.03173,0.46864 0.665801,0.40992 0.694481,0.0473 l 0.220966,-2.79371 0.03157,2.41489 0,4.54565 c 0.0136,0.50468 0.618605,0.47948 0.69448,0.0158 l 0.347243,-3.89853 0.236755,3.93009 c 0.01202,0.49127 0.665844,0.4005 0.662903,3e-5 l 0.09468,-4.70385 0.03156,-2.33598"
         style="fill:#000000;fill-opacity:1;fill-rule:evenodd;stroke:none;stroke-width:1px;stroke-linecap:butt;stroke-linejoin:miter;stroke-opacity:1" />
    </g>
  </g>
</svg>
